<?xml version="1.0" encoding="utf-8"?>
<svg viewBox="0 0 210 210" xmlns="http://www.w3.org/2000/svg" xmlns:bx="https://boxy-svg.com">
  <defs>
    <bx:grid x="-0.276" y="-0.271" width="13.705" height="9.591"/>
    <style bx:fonts="Alex Brush">@import url(https://fonts.googleapis.com/css2?family=Alex+Brush%3Aital%2Cwght%400%2C400&amp;display=swap);</style>
  </defs>
  <ellipse style="paint-order: fill; fill: rgb(255, 251, 251);" cx="96.328" cy="94.753" rx="100.764" ry="100.764" transform="matrix(1, 0, -0.002072, 1, 9.62232, 10.284432)"/>
  <g transform="matrix(1, 0, 0, 1, 15.605199, 16.013447)" clip-path="url(#e8b08-2b59299a-cb06)">
    <rect x="-0.362" y="-1.177" width="176.976" height="172.883" style="fill: rgb(218, 165, 32);"/>
    <defs>
      <clipPath id="e8b08-2b59299a-cb06">
        <path d="M185.8,75.2c-0.7,2.1-1.3,5.7-0.3,10.7l0,0c1.1,6.1,1.6,12.7,1.4,19.9l-1,0c0.3-13-1.7-24.1-5-33.5  c-1.2-2.6-3.4-5.2-5.9-7.5c-2.1-1.4-5.4-1.7-7.6-1.8c-3,1.2-11.6,3.4-22.7-2.7c0,0,9.5-3.9,22.8,1.7c1.5,0,3.4,0.2,5.1,0.7  c-4.7-3.8-10.1-6.9-13.1-8.5c-3.6,0-18.6-0.9-26.2-14c0,0,14.7,0,25.9,12.7c4.1,2.1,14.3,7.7,20,14.7c-5.8-13.9-14.4-23.8-22.2-30.5  c-3.4-2.9-6.8-5.4-10-7.5c-0.2-0.1-0.9-0.1-1.7,0.1c-2.2,1.5-9.7,5.5-23.1,1c0,0,8.1-5.3,22.5-1.9c0.3-0.1,0.6-0.1,0.9-0.2  c-6.4-4-11.9-6.4-15.3-7.7c0,0.1,0.1,0.1,0.1,0.2c0,0-16.2,3.3-22.2-15.8c0,0,12.5,3.6,20.9,14.2c3.3,1.2,10.4,4,18.5,9.3  c0,0,0,0,0,0l0,0c3.3,2.1,6.7,4.6,10.1,7.5c1.6,1.4,3.3,3,5,4.7c-0.6-3.5-1.9-6.9-6.2-11.2c-2.4-2.3-3.6-4.6-4.1-6.1  c-12.1-13.2-6-23.7-6-23.7c9.7,10.6,7.9,21.2,7.2,24.1c0.6,1.3,1.7,3.1,3.6,5c1.1,1.1,2,2.1,2.7,3c0-0.3,0.1-0.6,0.2-0.9  c-2.9-13.6,7.3-20.5,7.3-20.5c-0.1,13.3-4.5,18.9-6.3,20.6c-0.2,0.8-0.3,1.6-0.3,2c2.1,3.2,2.7,6,3.2,8.9c6.9,7.3,13.6,17,18.1,29.6  c0.1,0.2,0.2,0.3,0.2,0.5l-0.1,0c0.8,2.2,1.4,4.5,2,6.9c0.1-2.1,0.6-3.8,1-5c-3-19.4,11.9-23.3,11.9-23.3  C195.8,66.4,188.1,73.5,185.8,75.2z M162.7,157c-6.1,5.7-12,10.6-18.5,14.5c-6.2,0.7-11.8,1-16.6,0.9c-5.6-0.2-8.8-1.8-10.6-3.4  c-0.6-12.6-15.3-20.5-15.3-20.5c1.8,16,10.8,19.9,14.1,20.8c0.9,0.9,2.2,1.8,4.1,2.6c-10.2-1-16.2-3.4-18.8-4.7  c-7.4-12.1-19.8-16.6-19.8-16.6c4.4,14.4,15.5,16.9,19.1,17.4c2.6,1.4,9.2,4.1,20.7,5c-0.8,0.2-1.4,0.4-2,0.5  c-15.9-1.1-17.5,2-17.5,2c14.9,3.6,17.5,0.5,18-1.1c1.6-0.5,4-1.1,8-1.2c0.5,0,1,0,1.4,0c3.9,0,8.3-0.2,13-0.7  c-9.4,5.3-20.1,8.5-33.9,9.2c-4.6,0.2-9.1,0-13.5-0.5l0,0c-5.7-0.8-10-4.3-12.3-6.7c-3-14.2-16.9-19.1-16.8-18.7  c3.6,16.9,13.6,19.3,16.3,19.6c1.5,1.5,3.6,3.3,6.3,4.6c-17.1-3.6-32.3-12.8-43-26.5c-1-2.9-1.8-5.6-2.4-8.2  c-0.9-6.1,1.1-9.5,2.8-11.2c2.1,0.9,9.6,2.5,17-15.9c0,0-19.8,8.1-17.7,15.2c-1.3,1.3-2.6,3.3-3.1,6.4c-0.8-5.8-0.6-10.3-0.2-13.3  c2-2,7.5-8.8,8.4-24c0,0-15.5,5.9-9.4,24c-0.6,4.7-0.8,13.1,2.8,24.5c-0.2-0.3-0.4-0.6-0.6-0.8c-5-7.1-8.4-12.6-10.9-17.5l0,0  c-0.1-0.3-0.3-0.6-0.4-0.8c-2.4-4.8-3.9-9-4.9-13.7l0,0c-1-5.4,0-8.2,1-9.6c1.8-0.3,7.2-3,12.3-25.1c0,0-14.3,4.9-12.9,24.3  c-0.6,0.8-1.3,1.9-1.6,3.6c-0.5-3.6-0.9-7.7-1.4-12.6l-0.1-0.6c-1.7-16.7,2-23.1,4.7-27.8c1-1.7,1.8-3.1,2.2-4.8l2.5-1.2  c1.4,1,8.1,3.9,23.9-13.5c0,0-15.7,0.5-23.6,12.2l-2.5,1.1c2-5.7,8.7-16.5,10.9-20c3-1.2,10.8-5.8,18.7-21.3c0,0-19.3,6.4-19.9,21.3  C38.6,48,33.5,56.3,31,62c-0.1-1.2-0.2-2.6-0.3-3.9c1.5-3,5.5-12.8,3.3-24c0,0-9.1,7.2-4.3,23.2c0.1,2.1,0.2,4.9,0.6,6.4  c-0.2,0.6-0.4,1.1-0.5,1.6c-0.4,1.6-1.3,3.1-2.2,4.8c-2.2,3.9-5.2,9-5.2,20c-0.4-0.7-0.9-1.4-1.3-1.9c-1.3-3.3-2.2-7-2.8-9.5  c1.6-25.4-5-32.1-5-32.1c-6.4,15,1.2,28.2,4,32.2c0.5,2.1,1.2,5,2.1,7.9c0,0,0,0-0.1,0C11.7,73.6,0,73.8,0,73.8  C4.4,84,15.3,86.8,18.8,87.4c0.4,0.3,0.9,0.8,1.3,1.3c0.7,1.7,1.4,3.3,2.3,4.5c0.1,1.7,0.2,3.4,0.4,5.4l0.1,0.6  c1.4,14.1,2.2,21.8,6.5,31.2c-0.4-0.2-0.9-0.4-1.3-0.5c-0.7-0.5-1.4-1-1.9-1.5c-12.5-28.2-19.2-25.5-19.2-25.5  c5,18.7,15.2,24.8,18.7,26.4c0.1,0.1,0.2,0.2,0.3,0.3c-14.8-3.4-18.9,3.7-18.9,3.7c10.8,2.6,16.7-0.9,18.8-2.6  c0.6,0,1.3,0.1,1.9,0.3c0.6,0.4,1.3,0.7,2.1,1c0.3,0.2,0.5,0.5,0.7,0.8c2.6,5.1,6.2,10.8,11.4,18.3c5.1,7.3,11.3,13.4,18.4,18.3  c-1.9-0.2-3.6-0.4-5.1-0.5c-3-0.7-5.8-2-7.9-3c-7.2-9.6-20.5-14.2-20.5-14.2c2.1,12.7,15.4,14.6,19.7,14.9c1.4,0.7,3.1,1.5,5.1,2.2  c-2.6,0.1-4.4,0.4-5.7,0.8c-12.3-0.4-21.2,9.6-21.2,9.6c14,1.3,20.2-6.2,21.8-8.7c1.6-0.5,4.2-0.9,8.5-0.7c0.4,0.1,0.8,0.2,1.3,0.3  l0-0.2c1.7,0.1,3.7,0.3,5.9,0.7c12.3,8,26.9,12.4,42.2,12.4c1.3,0,2.6,0,4-0.1c0.1,0,0.2,0,0.4,0c-2.9,1.2-5,1.9-6.4,2.2  c-32.1-4.7-31.3,3.5-31.3,3.5c12.9,6.3,26.7,0,31.2-2.5c1.9-0.4,4.9-1.3,9.4-3.4c14.3-1.1,25.2-5.1,34.9-11.3  c-18.1,15.3-18.1,18.7-18.1,18.7c19.5-5,20.2-17.7,20.2-20c5.1-3.5,10-7.6,15-12.3L162.7,157z" fill="#000000" transform="scale(0.8933637747336377 0.8937354624572041)" stroke-width="0" stroke="#000000"/>
      </clipPath>
    </defs>
  </g>
  <text style="fill: rgb(51, 51, 51); font-family: &quot;Alex Brush&quot;; font-size: 24px; text-anchor: middle; white-space: pre;" transform="matrix(1, 0, 0, 1, 39.530033, -6.335029)"><tspan x="68.553" y="88.949">Victoria</tspan><tspan x="68.553" dy="1em">​</tspan><tspan>&amp;</tspan><tspan x="68.553" dy="1em">​</tspan><tspan>Thomas</tspan></text>
</svg>